<mxfile host="app.diagrams.net" modified="2024-05-22T03:36:11.108Z" agent="Mozilla/5.0 (Windows NT 10.0; Win64; x64) AppleWebKit/537.36 (KHTML, like Gecko) Chrome/124.0.0.0 Safari/537.36" etag="mPhHQVXYDKD6ipo--EOs" version="24.4.4" type="device" pages="3">
  <diagram name="第 1 页" id="l-y3crMUCzg5eLr-7p1A">
    <mxGraphModel dx="1034" dy="428" grid="1" gridSize="10" guides="1" tooltips="1" connect="1" arrows="1" fold="1" page="1" pageScale="1" pageWidth="827" pageHeight="1169" math="0" shadow="0">
      <root>
        <mxCell id="0" />
        <mxCell id="1" parent="0" />
        <mxCell id="v_XH994GgQmJwiQSqpO0-5" style="edgeStyle=orthogonalEdgeStyle;rounded=0;orthogonalLoop=1;jettySize=auto;html=1;" parent="1" source="v_XH994GgQmJwiQSqpO0-1" target="v_XH994GgQmJwiQSqpO0-3" edge="1">
          <mxGeometry relative="1" as="geometry" />
        </mxCell>
        <mxCell id="v_XH994GgQmJwiQSqpO0-1" value="用戶層" style="swimlane;whiteSpace=wrap;html=1;" parent="1" vertex="1">
          <mxGeometry x="295" y="20" width="200" height="90" as="geometry" />
        </mxCell>
        <mxCell id="v_XH994GgQmJwiQSqpO0-2" value="用戶(學生、教師、助教)" style="text;html=1;align=center;verticalAlign=middle;resizable=0;points=[];autosize=1;strokeColor=none;fillColor=none;" parent="v_XH994GgQmJwiQSqpO0-1" vertex="1">
          <mxGeometry x="20" y="40" width="150" height="30" as="geometry" />
        </mxCell>
        <mxCell id="v_XH994GgQmJwiQSqpO0-9" style="edgeStyle=orthogonalEdgeStyle;rounded=0;orthogonalLoop=1;jettySize=auto;html=1;entryX=0.5;entryY=0;entryDx=0;entryDy=0;" parent="1" source="v_XH994GgQmJwiQSqpO0-3" target="v_XH994GgQmJwiQSqpO0-6" edge="1">
          <mxGeometry relative="1" as="geometry" />
        </mxCell>
        <mxCell id="v_XH994GgQmJwiQSqpO0-3" value="應用層" style="swimlane;whiteSpace=wrap;html=1;" parent="1" vertex="1">
          <mxGeometry x="295" y="200" width="200" height="90" as="geometry" />
        </mxCell>
        <mxCell id="v_XH994GgQmJwiQSqpO0-4" value="文見掃描、&lt;span style=&quot;background-color: initial;&quot;&gt;OCR辨識、&lt;/span&gt;&lt;span style=&quot;background-color: initial;&quot;&gt;文件管理、&lt;/span&gt;&lt;div&gt;&lt;span style=&quot;background-color: initial;&quot;&gt;選課單管理、請假單管理&lt;/span&gt;&lt;/div&gt;" style="text;html=1;align=center;verticalAlign=middle;resizable=0;points=[];autosize=1;strokeColor=none;fillColor=none;" parent="v_XH994GgQmJwiQSqpO0-3" vertex="1">
          <mxGeometry y="35" width="210" height="40" as="geometry" />
        </mxCell>
        <mxCell id="v_XH994GgQmJwiQSqpO0-12" style="edgeStyle=orthogonalEdgeStyle;rounded=0;orthogonalLoop=1;jettySize=auto;html=1;entryX=0.5;entryY=0;entryDx=0;entryDy=0;" parent="1" source="v_XH994GgQmJwiQSqpO0-6" target="v_XH994GgQmJwiQSqpO0-10" edge="1">
          <mxGeometry relative="1" as="geometry" />
        </mxCell>
        <mxCell id="v_XH994GgQmJwiQSqpO0-6" value="服務層" style="swimlane;whiteSpace=wrap;html=1;" parent="1" vertex="1">
          <mxGeometry x="270" y="380" width="250" height="90" as="geometry" />
        </mxCell>
        <mxCell id="v_XH994GgQmJwiQSqpO0-7" value="文件處理服務、公告服務、OCR服務" style="text;html=1;align=center;verticalAlign=middle;resizable=0;points=[];autosize=1;strokeColor=none;fillColor=none;" parent="v_XH994GgQmJwiQSqpO0-6" vertex="1">
          <mxGeometry x="15" y="40" width="220" height="30" as="geometry" />
        </mxCell>
        <mxCell id="v_XH994GgQmJwiQSqpO0-10" value="數據層" style="swimlane;whiteSpace=wrap;html=1;" parent="1" vertex="1">
          <mxGeometry x="270" y="560" width="250" height="90" as="geometry" />
        </mxCell>
        <mxCell id="v_XH994GgQmJwiQSqpO0-11" value="用戶數據庫、文件數據庫" style="text;html=1;align=center;verticalAlign=middle;resizable=0;points=[];autosize=1;strokeColor=none;fillColor=none;" parent="v_XH994GgQmJwiQSqpO0-10" vertex="1">
          <mxGeometry x="45" y="40" width="160" height="30" as="geometry" />
        </mxCell>
      </root>
    </mxGraphModel>
  </diagram>
  <diagram id="wJxj8ikvwwwoK5T4IbcW" name="第 2 页">
    <mxGraphModel dx="2090" dy="1256" grid="0" gridSize="10" guides="1" tooltips="1" connect="1" arrows="1" fold="1" page="0" pageScale="1" pageWidth="827" pageHeight="1169" math="0" shadow="0">
      <root>
        <mxCell id="0" />
        <mxCell id="1" parent="0" />
        <mxCell id="7lEtMVMgK3dqcTBhhaDx-2" value="" style="edgeStyle=none;curved=1;rounded=0;orthogonalLoop=1;jettySize=auto;html=1;fontSize=12;startSize=8;endSize=8;labelBackgroundColor=none;strokeColor=#23445D;fontColor=default;" edge="1" parent="1" source="Mzgn9HOzcP1KJAlV60Ed-1" target="7lEtMVMgK3dqcTBhhaDx-1">
          <mxGeometry relative="1" as="geometry" />
        </mxCell>
        <mxCell id="Mzgn9HOzcP1KJAlV60Ed-1" value="使用者" style="rounded=0;whiteSpace=wrap;html=1;labelBackgroundColor=none;fillColor=#182E3E;strokeColor=#FFFFFF;fontColor=#FFFFFF;" vertex="1" parent="1">
          <mxGeometry x="-315" y="-251" width="57" height="167" as="geometry" />
        </mxCell>
        <mxCell id="7lEtMVMgK3dqcTBhhaDx-1" value="App" style="rounded=0;whiteSpace=wrap;html=1;labelBackgroundColor=none;fillColor=#182E3E;strokeColor=#FFFFFF;fontColor=#FFFFFF;" vertex="1" parent="1">
          <mxGeometry x="-220" y="-251" width="53" height="167" as="geometry" />
        </mxCell>
        <mxCell id="7lEtMVMgK3dqcTBhhaDx-3" value="SQL" style="rounded=0;whiteSpace=wrap;html=1;labelBackgroundColor=none;fillColor=#182E3E;strokeColor=#FFFFFF;fontColor=#FFFFFF;" vertex="1" parent="1">
          <mxGeometry x="-107" y="-245" width="120" height="73" as="geometry" />
        </mxCell>
        <mxCell id="7lEtMVMgK3dqcTBhhaDx-4" value="Line Bot" style="rounded=0;whiteSpace=wrap;html=1;labelBackgroundColor=none;fillColor=#182E3E;strokeColor=#FFFFFF;fontColor=#FFFFFF;" vertex="1" parent="1">
          <mxGeometry x="-112" y="-156" width="120" height="60" as="geometry" />
        </mxCell>
        <mxCell id="CaBVvNFpXe09-ILxYxXp-6" style="edgeStyle=none;curved=1;rounded=0;orthogonalLoop=1;jettySize=auto;html=1;entryX=1;entryY=0.5;entryDx=0;entryDy=0;fontSize=12;startSize=8;endSize=8;labelBackgroundColor=none;strokeColor=#23445D;fontColor=default;" edge="1" parent="1" source="7lEtMVMgK3dqcTBhhaDx-6" target="CaBVvNFpXe09-ILxYxXp-4">
          <mxGeometry relative="1" as="geometry" />
        </mxCell>
        <mxCell id="7lEtMVMgK3dqcTBhhaDx-6" value="修正" style="rounded=0;whiteSpace=wrap;html=1;labelBackgroundColor=none;fillColor=#182E3E;strokeColor=#FFFFFF;fontColor=#FFFFFF;" vertex="1" parent="1">
          <mxGeometry x="210" y="-251" width="60" height="172" as="geometry" />
        </mxCell>
        <mxCell id="CaBVvNFpXe09-ILxYxXp-11" value="" style="edgeStyle=none;curved=1;rounded=0;orthogonalLoop=1;jettySize=auto;html=1;fontSize=12;startSize=8;endSize=8;labelBackgroundColor=none;strokeColor=#23445D;fontColor=default;" edge="1" parent="1" source="7lEtMVMgK3dqcTBhhaDx-7" target="7lEtMVMgK3dqcTBhhaDx-9">
          <mxGeometry relative="1" as="geometry" />
        </mxCell>
        <mxCell id="7lEtMVMgK3dqcTBhhaDx-7" value="OCR" style="rounded=0;whiteSpace=wrap;html=1;labelBackgroundColor=none;fillColor=#182E3E;strokeColor=#FFFFFF;fontColor=#FFFFFF;" vertex="1" parent="1">
          <mxGeometry x="572" y="-249" width="72" height="171" as="geometry" />
        </mxCell>
        <mxCell id="CaBVvNFpXe09-ILxYxXp-13" value="" style="edgeStyle=none;curved=1;rounded=0;orthogonalLoop=1;jettySize=auto;html=1;fontSize=12;startSize=8;endSize=8;labelBackgroundColor=none;strokeColor=#23445D;fontColor=default;" edge="1" parent="1" source="7lEtMVMgK3dqcTBhhaDx-8" target="CaBVvNFpXe09-ILxYxXp-10">
          <mxGeometry relative="1" as="geometry" />
        </mxCell>
        <mxCell id="7lEtMVMgK3dqcTBhhaDx-8" value="分類器" style="rounded=0;whiteSpace=wrap;html=1;labelBackgroundColor=none;fillColor=#182E3E;strokeColor=#FFFFFF;fontColor=#FFFFFF;" vertex="1" parent="1">
          <mxGeometry x="797" y="-249" width="67" height="178" as="geometry" />
        </mxCell>
        <mxCell id="CaBVvNFpXe09-ILxYxXp-9" value="" style="edgeStyle=none;curved=1;rounded=0;orthogonalLoop=1;jettySize=auto;html=1;fontSize=12;startSize=8;endSize=8;labelBackgroundColor=none;strokeColor=#23445D;fontColor=default;" edge="1" parent="1" source="7lEtMVMgK3dqcTBhhaDx-9" target="CaBVvNFpXe09-ILxYxXp-7">
          <mxGeometry relative="1" as="geometry" />
        </mxCell>
        <mxCell id="7lEtMVMgK3dqcTBhhaDx-9" value="文檔" style="rounded=0;whiteSpace=wrap;html=1;labelBackgroundColor=none;fillColor=#182E3E;strokeColor=#FFFFFF;fontColor=#FFFFFF;" vertex="1" parent="1">
          <mxGeometry x="456" y="-251" width="61" height="173" as="geometry" />
        </mxCell>
        <mxCell id="CaBVvNFpXe09-ILxYxXp-1" value="" style="endArrow=classic;html=1;rounded=0;fontSize=12;startSize=8;endSize=8;curved=1;exitX=1;exitY=0.75;exitDx=0;exitDy=0;entryX=0;entryY=0.5;entryDx=0;entryDy=0;labelBackgroundColor=none;strokeColor=#23445D;fontColor=default;" edge="1" parent="1" source="7lEtMVMgK3dqcTBhhaDx-1" target="7lEtMVMgK3dqcTBhhaDx-4">
          <mxGeometry width="50" height="50" relative="1" as="geometry">
            <mxPoint x="57" y="-155" as="sourcePoint" />
            <mxPoint x="107" y="-205" as="targetPoint" />
          </mxGeometry>
        </mxCell>
        <mxCell id="CaBVvNFpXe09-ILxYxXp-3" value="" style="endArrow=classic;startArrow=classic;html=1;rounded=0;fontSize=12;startSize=8;endSize=8;curved=1;exitX=1;exitY=0.25;exitDx=0;exitDy=0;labelBackgroundColor=none;strokeColor=#23445D;fontColor=default;" edge="1" parent="1" source="7lEtMVMgK3dqcTBhhaDx-1">
          <mxGeometry width="50" height="50" relative="1" as="geometry">
            <mxPoint x="57" y="-155" as="sourcePoint" />
            <mxPoint x="-104" y="-209" as="targetPoint" />
          </mxGeometry>
        </mxCell>
        <mxCell id="CaBVvNFpXe09-ILxYxXp-5" style="edgeStyle=none;curved=1;rounded=0;orthogonalLoop=1;jettySize=auto;html=1;entryX=1;entryY=0.5;entryDx=0;entryDy=0;fontSize=12;startSize=8;endSize=8;exitX=0;exitY=0.25;exitDx=0;exitDy=0;labelBackgroundColor=none;strokeColor=#23445D;fontColor=default;" edge="1" parent="1" source="CaBVvNFpXe09-ILxYxXp-4" target="7lEtMVMgK3dqcTBhhaDx-3">
          <mxGeometry relative="1" as="geometry" />
        </mxCell>
        <mxCell id="CaBVvNFpXe09-ILxYxXp-4" value="後端" style="rounded=0;whiteSpace=wrap;html=1;labelBackgroundColor=none;fillColor=#182E3E;strokeColor=#FFFFFF;fontColor=#FFFFFF;" vertex="1" parent="1">
          <mxGeometry x="87" y="-251" width="60" height="172" as="geometry" />
        </mxCell>
        <mxCell id="CaBVvNFpXe09-ILxYxXp-8" value="" style="edgeStyle=none;curved=1;rounded=0;orthogonalLoop=1;jettySize=auto;html=1;fontSize=12;startSize=8;endSize=8;labelBackgroundColor=none;strokeColor=#23445D;fontColor=default;" edge="1" parent="1" source="CaBVvNFpXe09-ILxYxXp-7" target="7lEtMVMgK3dqcTBhhaDx-6">
          <mxGeometry relative="1" as="geometry" />
        </mxCell>
        <mxCell id="CaBVvNFpXe09-ILxYxXp-7" value="Chat GPT" style="rounded=0;whiteSpace=wrap;html=1;labelBackgroundColor=none;fillColor=#182E3E;strokeColor=#FFFFFF;fontColor=#FFFFFF;" vertex="1" parent="1">
          <mxGeometry x="333" y="-251" width="60" height="172" as="geometry" />
        </mxCell>
        <mxCell id="CaBVvNFpXe09-ILxYxXp-12" value="" style="edgeStyle=none;curved=1;rounded=0;orthogonalLoop=1;jettySize=auto;html=1;fontSize=12;startSize=8;endSize=8;labelBackgroundColor=none;strokeColor=#23445D;fontColor=default;" edge="1" parent="1" source="CaBVvNFpXe09-ILxYxXp-10" target="7lEtMVMgK3dqcTBhhaDx-7">
          <mxGeometry relative="1" as="geometry" />
        </mxCell>
        <mxCell id="CaBVvNFpXe09-ILxYxXp-10" value="表格種類" style="rounded=0;whiteSpace=wrap;html=1;labelBackgroundColor=none;fillColor=#182E3E;strokeColor=#FFFFFF;fontColor=#FFFFFF;" vertex="1" parent="1">
          <mxGeometry x="687" y="-249" width="72" height="174" as="geometry" />
        </mxCell>
        <mxCell id="CaBVvNFpXe09-ILxYxXp-15" value="" style="edgeStyle=none;curved=1;rounded=0;orthogonalLoop=1;jettySize=auto;html=1;fontSize=12;startSize=8;endSize=8;labelBackgroundColor=none;strokeColor=#23445D;fontColor=default;" edge="1" parent="1" source="CaBVvNFpXe09-ILxYxXp-14" target="7lEtMVMgK3dqcTBhhaDx-8">
          <mxGeometry relative="1" as="geometry" />
        </mxCell>
        <mxCell id="CaBVvNFpXe09-ILxYxXp-14" value="表格" style="rounded=0;whiteSpace=wrap;html=1;labelBackgroundColor=none;fillColor=#182E3E;strokeColor=#FFFFFF;fontColor=#FFFFFF;" vertex="1" parent="1">
          <mxGeometry x="930" y="-249" width="67" height="178" as="geometry" />
        </mxCell>
      </root>
    </mxGraphModel>
  </diagram>
  <diagram id="LvJOn4QOZv3wtfT1hg_M" name="第 3 页">
    <mxGraphModel dx="2090" dy="856" grid="0" gridSize="10" guides="1" tooltips="1" connect="1" arrows="1" fold="1" page="0" pageScale="1" pageWidth="827" pageHeight="1169" math="0" shadow="0">
      <root>
        <mxCell id="0" />
        <mxCell id="1" parent="0" />
        <mxCell id="eep00UGD5MPq94WjnSFy-1" value="使用者" style="shape=umlActor;verticalLabelPosition=bottom;verticalAlign=top;html=1;outlineConnect=0;labelBackgroundColor=none;fillColor=none;" vertex="1" parent="1">
          <mxGeometry x="-140" y="24" width="30" height="60" as="geometry" />
        </mxCell>
        <mxCell id="gFJ0TfAk3hyOUmlYpgSj-19" style="edgeStyle=none;curved=1;rounded=0;orthogonalLoop=1;jettySize=auto;html=1;entryX=0;entryY=0.5;entryDx=0;entryDy=0;strokeColor=#23445D;fontSize=12;startSize=8;endSize=8;labelBackgroundColor=none;fontColor=default;" edge="1" parent="1" source="eep00UGD5MPq94WjnSFy-2" target="gFJ0TfAk3hyOUmlYpgSj-2">
          <mxGeometry relative="1" as="geometry" />
        </mxCell>
        <mxCell id="gFJ0TfAk3hyOUmlYpgSj-20" style="edgeStyle=none;curved=1;rounded=0;orthogonalLoop=1;jettySize=auto;html=1;entryX=0;entryY=0.5;entryDx=0;entryDy=0;strokeColor=#23445D;fontSize=12;startSize=8;endSize=8;labelBackgroundColor=none;fontColor=default;" edge="1" parent="1" source="eep00UGD5MPq94WjnSFy-2" target="gFJ0TfAk3hyOUmlYpgSj-3">
          <mxGeometry relative="1" as="geometry" />
        </mxCell>
        <mxCell id="eep00UGD5MPq94WjnSFy-2" value="前端APP" style="rounded=0;whiteSpace=wrap;html=1;labelBackgroundColor=none;fillColor=#182E3E;strokeColor=#FFFFFF;fontColor=#FFFFFF;" vertex="1" parent="1">
          <mxGeometry x="-1" y="21" width="120" height="91" as="geometry" />
        </mxCell>
        <mxCell id="eep00UGD5MPq94WjnSFy-4" value="" style="endArrow=classic;html=1;rounded=0;fontSize=12;startSize=8;endSize=8;curved=1;labelBackgroundColor=none;strokeColor=#23445D;fontColor=default;" edge="1" parent="1">
          <mxGeometry width="50" height="50" relative="1" as="geometry">
            <mxPoint x="-103" y="53" as="sourcePoint" />
            <mxPoint x="-13" y="53" as="targetPoint" />
          </mxGeometry>
        </mxCell>
        <mxCell id="eep00UGD5MPq94WjnSFy-5" value="" style="endArrow=classic;html=1;rounded=0;fontSize=12;startSize=8;endSize=8;curved=1;labelBackgroundColor=none;strokeColor=#23445D;fontColor=default;" edge="1" parent="1">
          <mxGeometry width="50" height="50" relative="1" as="geometry">
            <mxPoint x="-22" y="84" as="sourcePoint" />
            <mxPoint x="-101" y="84" as="targetPoint" />
          </mxGeometry>
        </mxCell>
        <mxCell id="eep00UGD5MPq94WjnSFy-6" value="資料" style="text;html=1;align=center;verticalAlign=middle;resizable=0;points=[];autosize=1;strokeColor=none;fillColor=none;fontSize=16;labelBackgroundColor=none;fontColor=#FFFFFF;" vertex="1" parent="1">
          <mxGeometry x="-83" y="16" width="50" height="31" as="geometry" />
        </mxCell>
        <mxCell id="eep00UGD5MPq94WjnSFy-7" value="結果" style="text;html=1;align=center;verticalAlign=middle;resizable=0;points=[];autosize=1;strokeColor=none;fillColor=none;fontSize=16;labelBackgroundColor=none;fontColor=#FFFFFF;" vertex="1" parent="1">
          <mxGeometry x="-81" y="94" width="50" height="31" as="geometry" />
        </mxCell>
        <mxCell id="eep00UGD5MPq94WjnSFy-8" value="" style="rounded=0;whiteSpace=wrap;html=1;labelBackgroundColor=none;fillColor=none;" vertex="1" parent="1">
          <mxGeometry x="194" y="21" width="719" height="210" as="geometry" />
        </mxCell>
        <mxCell id="gFJ0TfAk3hyOUmlYpgSj-1" value="後端APP" style="text;html=1;align=center;verticalAlign=middle;whiteSpace=wrap;rounded=0;fontSize=16;labelBackgroundColor=none;fontColor=#000000;" vertex="1" parent="1">
          <mxGeometry x="204" y="30" width="82" height="30" as="geometry" />
        </mxCell>
        <mxCell id="gFJ0TfAk3hyOUmlYpgSj-17" style="edgeStyle=none;curved=1;rounded=0;orthogonalLoop=1;jettySize=auto;html=1;entryX=0;entryY=0.5;entryDx=0;entryDy=0;fontSize=12;startSize=8;endSize=8;labelBackgroundColor=none;strokeColor=#23445D;fontColor=default;" edge="1" parent="1" source="gFJ0TfAk3hyOUmlYpgSj-2" target="2CzDfL5AIDDo7iRuuxNU-1">
          <mxGeometry relative="1" as="geometry" />
        </mxCell>
        <mxCell id="gFJ0TfAk3hyOUmlYpgSj-2" value="文件上傳" style="rounded=0;whiteSpace=wrap;html=1;labelBackgroundColor=none;fillColor=#182E3E;strokeColor=#FFFFFF;fontColor=#FFFFFF;" vertex="1" parent="1">
          <mxGeometry x="288" y="65" width="120" height="60" as="geometry" />
        </mxCell>
        <mxCell id="gFJ0TfAk3hyOUmlYpgSj-18" style="edgeStyle=none;curved=1;rounded=0;orthogonalLoop=1;jettySize=auto;html=1;entryX=0;entryY=0.5;entryDx=0;entryDy=0;fontSize=12;startSize=8;endSize=8;labelBackgroundColor=none;strokeColor=#23445D;fontColor=default;" edge="1" parent="1" source="gFJ0TfAk3hyOUmlYpgSj-3" target="2CzDfL5AIDDo7iRuuxNU-1">
          <mxGeometry relative="1" as="geometry" />
        </mxCell>
        <mxCell id="gFJ0TfAk3hyOUmlYpgSj-3" value="Linebot" style="rounded=0;whiteSpace=wrap;html=1;labelBackgroundColor=none;fillColor=#182E3E;strokeColor=#FFFFFF;fontColor=#FFFFFF;" vertex="1" parent="1">
          <mxGeometry x="286" y="155" width="120" height="60" as="geometry" />
        </mxCell>
        <mxCell id="gFJ0TfAk3hyOUmlYpgSj-27" style="edgeStyle=none;curved=1;rounded=0;orthogonalLoop=1;jettySize=auto;html=1;strokeColor=#23445D;fontSize=12;startSize=8;endSize=8;" edge="1" parent="1" source="gFJ0TfAk3hyOUmlYpgSj-4" target="gFJ0TfAk3hyOUmlYpgSj-14">
          <mxGeometry relative="1" as="geometry" />
        </mxCell>
        <mxCell id="gFJ0TfAk3hyOUmlYpgSj-4" value="ChatGPT" style="rounded=0;whiteSpace=wrap;html=1;labelBackgroundColor=none;fillColor=#182E3E;strokeColor=#FFFFFF;fontColor=#FFFFFF;" vertex="1" parent="1">
          <mxGeometry x="773" y="94" width="120" height="60" as="geometry" />
        </mxCell>
        <mxCell id="gFJ0TfAk3hyOUmlYpgSj-5" value="" style="rounded=0;whiteSpace=wrap;html=1;labelBackgroundColor=none;fillColor=none;" vertex="1" parent="1">
          <mxGeometry x="-157" y="589" width="377" height="246" as="geometry" />
        </mxCell>
        <mxCell id="gFJ0TfAk3hyOUmlYpgSj-6" value="文件" style="text;html=1;align=center;verticalAlign=middle;whiteSpace=wrap;rounded=0;fontSize=16;labelBackgroundColor=none;fontColor=#000000;" vertex="1" parent="1">
          <mxGeometry x="-155" y="617" width="60" height="30" as="geometry" />
        </mxCell>
        <mxCell id="gFJ0TfAk3hyOUmlYpgSj-21" style="edgeStyle=none;curved=1;rounded=0;orthogonalLoop=1;jettySize=auto;html=1;entryX=0;entryY=0.5;entryDx=0;entryDy=0;strokeColor=#23445D;fontSize=12;startSize=8;endSize=8;" edge="1" parent="1" source="gFJ0TfAk3hyOUmlYpgSj-7" target="gFJ0TfAk3hyOUmlYpgSj-12">
          <mxGeometry relative="1" as="geometry" />
        </mxCell>
        <mxCell id="gFJ0TfAk3hyOUmlYpgSj-22" style="edgeStyle=none;curved=1;rounded=0;orthogonalLoop=1;jettySize=auto;html=1;entryX=0;entryY=0.5;entryDx=0;entryDy=0;strokeColor=#23445D;fontSize=12;startSize=8;endSize=8;" edge="1" parent="1" source="gFJ0TfAk3hyOUmlYpgSj-7" target="gFJ0TfAk3hyOUmlYpgSj-13">
          <mxGeometry relative="1" as="geometry" />
        </mxCell>
        <mxCell id="gFJ0TfAk3hyOUmlYpgSj-7" value="請假單" style="rounded=0;whiteSpace=wrap;html=1;labelBackgroundColor=none;fillColor=#182E3E;strokeColor=#FFFFFF;fontColor=#FFFFFF;" vertex="1" parent="1">
          <mxGeometry x="-49" y="643" width="120" height="60" as="geometry" />
        </mxCell>
        <mxCell id="gFJ0TfAk3hyOUmlYpgSj-23" style="edgeStyle=none;curved=1;rounded=0;orthogonalLoop=1;jettySize=auto;html=1;entryX=0;entryY=0.5;entryDx=0;entryDy=0;strokeColor=#23445D;fontSize=12;startSize=8;endSize=8;" edge="1" parent="1" source="gFJ0TfAk3hyOUmlYpgSj-8" target="gFJ0TfAk3hyOUmlYpgSj-12">
          <mxGeometry relative="1" as="geometry" />
        </mxCell>
        <mxCell id="gFJ0TfAk3hyOUmlYpgSj-24" style="edgeStyle=none;curved=1;rounded=0;orthogonalLoop=1;jettySize=auto;html=1;entryX=0;entryY=0.5;entryDx=0;entryDy=0;strokeColor=#23445D;fontSize=12;startSize=8;endSize=8;" edge="1" parent="1" source="gFJ0TfAk3hyOUmlYpgSj-8" target="gFJ0TfAk3hyOUmlYpgSj-13">
          <mxGeometry relative="1" as="geometry" />
        </mxCell>
        <mxCell id="gFJ0TfAk3hyOUmlYpgSj-8" value="選課單" style="rounded=0;whiteSpace=wrap;html=1;labelBackgroundColor=none;fillColor=#182E3E;strokeColor=#FFFFFF;fontColor=#FFFFFF;" vertex="1" parent="1">
          <mxGeometry x="-47" y="729" width="120" height="60" as="geometry" />
        </mxCell>
        <mxCell id="gFJ0TfAk3hyOUmlYpgSj-10" value="" style="rounded=0;whiteSpace=wrap;html=1;labelBackgroundColor=none;fillColor=none;strokeColor=default;" vertex="1" parent="1">
          <mxGeometry x="270" y="589" width="377" height="244" as="geometry" />
        </mxCell>
        <mxCell id="gFJ0TfAk3hyOUmlYpgSj-11" value="機器學習" style="text;html=1;align=center;verticalAlign=middle;whiteSpace=wrap;rounded=0;fontSize=16;labelBackgroundColor=none;fontColor=#000000;" vertex="1" parent="1">
          <mxGeometry x="286" y="613" width="77" height="30" as="geometry" />
        </mxCell>
        <mxCell id="gFJ0TfAk3hyOUmlYpgSj-12" value="本地OCR" style="rounded=0;whiteSpace=wrap;html=1;labelBackgroundColor=none;fillColor=#182E3E;strokeColor=#FFFFFF;fontColor=#FFFFFF;" vertex="1" parent="1">
          <mxGeometry x="391" y="643" width="120" height="60" as="geometry" />
        </mxCell>
        <mxCell id="gFJ0TfAk3hyOUmlYpgSj-13" value="雲端OCR" style="rounded=0;whiteSpace=wrap;html=1;labelBackgroundColor=none;fillColor=#182E3E;strokeColor=#FFFFFF;fontColor=#FFFFFF;" vertex="1" parent="1">
          <mxGeometry x="521" y="729" width="120" height="60" as="geometry" />
        </mxCell>
        <mxCell id="gFJ0TfAk3hyOUmlYpgSj-14" value="&lt;font style=&quot;font-size: 16px;&quot;&gt;資料庫&lt;/font&gt;" style="rounded=0;whiteSpace=wrap;html=1;labelBackgroundColor=none;fillColor=#182E3E;strokeColor=#FFFFFF;fontColor=#FFFFFF;" vertex="1" parent="1">
          <mxGeometry x="901" y="403" width="121" height="95" as="geometry" />
        </mxCell>
        <mxCell id="2CzDfL5AIDDo7iRuuxNU-5" style="edgeStyle=none;curved=1;rounded=0;orthogonalLoop=1;jettySize=auto;html=1;entryX=0;entryY=0.5;entryDx=0;entryDy=0;strokeColor=#23445D;fontSize=12;startSize=8;endSize=8;" edge="1" parent="1" source="2CzDfL5AIDDo7iRuuxNU-1" target="gFJ0TfAk3hyOUmlYpgSj-4">
          <mxGeometry relative="1" as="geometry" />
        </mxCell>
        <mxCell id="2CzDfL5AIDDo7iRuuxNU-1" value="falsk api" style="rounded=0;whiteSpace=wrap;html=1;strokeColor=#FFFFFF;fontColor=#FFFFFF;fillColor=#182E3E;" vertex="1" parent="1">
          <mxGeometry x="543" y="94" width="120" height="60" as="geometry" />
        </mxCell>
        <mxCell id="2CzDfL5AIDDo7iRuuxNU-7" value="" style="endArrow=classic;startArrow=classic;html=1;rounded=0;strokeColor=#23445D;fontSize=12;startSize=8;endSize=8;curved=1;entryX=0.5;entryY=1;entryDx=0;entryDy=0;exitX=0.5;exitY=0;exitDx=0;exitDy=0;" edge="1" parent="1" source="gFJ0TfAk3hyOUmlYpgSj-12" target="2CzDfL5AIDDo7iRuuxNU-1">
          <mxGeometry width="50" height="50" relative="1" as="geometry">
            <mxPoint x="511" y="480" as="sourcePoint" />
            <mxPoint x="561" y="430" as="targetPoint" />
          </mxGeometry>
        </mxCell>
        <mxCell id="2CzDfL5AIDDo7iRuuxNU-8" value="" style="endArrow=classic;startArrow=classic;html=1;rounded=0;strokeColor=#23445D;fontSize=12;startSize=8;endSize=8;curved=1;entryX=0.5;entryY=1;entryDx=0;entryDy=0;" edge="1" parent="1" source="gFJ0TfAk3hyOUmlYpgSj-13" target="2CzDfL5AIDDo7iRuuxNU-1">
          <mxGeometry width="50" height="50" relative="1" as="geometry">
            <mxPoint x="461" y="653" as="sourcePoint" />
            <mxPoint x="613" y="164" as="targetPoint" />
          </mxGeometry>
        </mxCell>
      </root>
    </mxGraphModel>
  </diagram>
</mxfile>
